<?xml version="1.0" encoding="UTF-8"?>
<svg version="1.1" xmlns="http://www.w3.org/2000/svg" width="20" height="20">
<path d="M0 0 C2.5 2.125 2.5 2.125 4 5 C4.25 8.125 4.25 8.125 4 11 C3.65192708 14.11987668 3.65192708 14.11987668 6 16.0625 C6.66 16.701875 7.32 17.34125 8 18 C8 18.66 8 19.32 8 20 C5.53199953 18.84826645 3.95216435 17.95216435 2 16 C-0.04614084 15.90907743 -0.04614084 15.90907743 -2.3125 16.125 C-5.65299046 16.17887888 -6.96537942 16.01695702 -10.0625 14.5 C-12.41945923 11.45876228 -12.6845823 9.67784898 -12.41015625 5.90625 C-12 4 -12 4 -10.5 1.5 C-6.98105682 -0.61136591 -3.99893269 -0.94237143 0 0 Z M-9 3 C-10.55854182 6.11708365 -9.68784644 8.6858308 -9 12 C-6.78223378 13.30514736 -6.78223378 13.30514736 -4 14 C-1.05724892 12.79614729 0.53536359 11.96024859 1.9375 9.0625 C2.02130754 6.29685128 1.78220984 5.15350355 0 3 C-4.58191945 1.7235174 -4.58191945 1.7235174 -9 3 Z " fill="#000000" transform="translate(12,0)"/>
</svg>
